<svg xmlns="http://www.w3.org/2000/svg" viewBox="0 0 500 500" role="img" aria-label="Retro future comet trails background">
  <defs>
    <linearGradient id="bg10" x1="0" y1="0" x2="1" y2="1">
      <stop offset="0%" stop-color="#100625"/>
      <stop offset="45%" stop-color="#1a2a61"/>
      <stop offset="100%" stop-color="#0c4e62"/>
    </linearGradient>
    <linearGradient id="trail10" x1="0" y1="0" x2="1" y2="1">
      <stop offset="0%" stop-color="#ffffff" stop-opacity="0.9"/>
      <stop offset="100%" stop-color="#74f2ff" stop-opacity="0"/>
    </linearGradient>
  </defs>

  <rect width="500" height="500" fill="url(#bg10)"/>

  <g fill="none" stroke="url(#trail10)" stroke-linecap="round">
    <path d="M-40 120 C 80 126, 150 166, 270 208" stroke-width="10"/>
    <path d="M-20 190 C 98 194, 172 228, 300 276" stroke-width="8"/>
    <path d="M18 254 C 128 260, 206 292, 334 340" stroke-width="7"/>
    <path d="M64 314 C 164 324, 240 352, 376 404" stroke-width="6"/>
  </g>

  <g>
    <circle cx="270" cy="208" r="10" fill="#d8faff"/>
    <circle cx="300" cy="276" r="9" fill="#ffd9a8"/>
    <circle cx="334" cy="340" r="8" fill="#ffa4de"/>
    <circle cx="376" cy="404" r="7" fill="#b7ffbe"/>
  </g>

  <g fill="#dceaff" opacity="0.72">
    <circle cx="94" cy="58" r="1.3"/>
    <circle cx="186" cy="74" r="1.2"/>
    <circle cx="268" cy="36" r="1.4"/>
    <circle cx="412" cy="86" r="1.6"/>
    <circle cx="446" cy="158" r="1.1"/>
    <circle cx="458" cy="284" r="1.2"/>
  </g>
</svg>
