<svg xmlns="http://www.w3.org/2000/svg" viewBox="0 0 500 500" role="img" aria-label="Retro future cyber city background">
  <defs>
    <linearGradient id="bg06" x1="0" y1="0" x2="0" y2="1">
      <stop offset="0%" stop-color="#07001f"/>
      <stop offset="52%" stop-color="#2f0f57"/>
      <stop offset="100%" stop-color="#ff8f47"/>
    </linearGradient>
    <radialGradient id="moon06" cx="0.76" cy="0.24" r="0.16">
      <stop offset="0%" stop-color="#ffeaa6"/>
      <stop offset="100%" stop-color="#ff8e6c" stop-opacity="0"/>
    </radialGradient>
  </defs>

  <rect width="500" height="500" fill="url(#bg06)"/>
  <circle cx="380" cy="122" r="78" fill="url(#moon06)"/>

  <g fill="#09122d">
    <rect x="0" y="290" width="44" height="210"/>
    <rect x="38" y="250" width="52" height="250"/>
    <rect x="88" y="308" width="34" height="192"/>
    <rect x="120" y="232" width="48" height="268"/>
    <rect x="165" y="272" width="66" height="228"/>
    <rect x="226" y="220" width="40" height="280"/>
    <rect x="264" y="296" width="58" height="204"/>
    <rect x="317" y="242" width="44" height="258"/>
    <rect x="356" y="278" width="64" height="222"/>
    <rect x="416" y="236" width="48" height="264"/>
    <rect x="458" y="282" width="42" height="218"/>
  </g>

  <g fill="#56ecff" fill-opacity="0.45">
    <rect x="48" y="272" width="6" height="32"/>
    <rect x="128" y="254" width="7" height="44"/>
    <rect x="177" y="304" width="7" height="38"/>
    <rect x="231" y="236" width="6" height="52"/>
    <rect x="281" y="324" width="7" height="30"/>
    <rect x="327" y="266" width="6" height="46"/>
    <rect x="369" y="312" width="7" height="28"/>
    <rect x="425" y="250" width="6" height="58"/>
    <rect x="469" y="300" width="6" height="34"/>
  </g>

  <rect x="0" y="442" width="500" height="58" fill="#060a1b"/>
</svg>
